<?xml version="1.0" encoding="UTF-8" standalone="no"?>
<!-- Created with Inkscape (http://www.inkscape.org/) -->

<svg
   xmlns:dc="http://purl.org/dc/elements/1.1/"
   xmlns:cc="http://creativecommons.org/ns#"
   xmlns:rdf="http://www.w3.org/1999/02/22-rdf-syntax-ns#"
   xmlns:svg="http://www.w3.org/2000/svg"
   xmlns="http://www.w3.org/2000/svg"
   xmlns:sodipodi="http://sodipodi.sourceforge.net/DTD/sodipodi-0.dtd"
   xmlns:inkscape="http://www.inkscape.org/namespaces/inkscape"
   width="48"
   height="48"
   viewBox="0 0 12.7 12.7"
   version="1.1"
   id="svg8"
   inkscape:version="0.92.3 (2405546, 2018-03-11)"
   sodipodi:docname="logo.svg"
   inkscape:export-filename="/home/maton/work/drasphid/docs/resources/favicon.png"
   inkscape:export-xdpi="192"
   inkscape:export-ydpi="192">
  <defs
     id="defs2" />
  <sodipodi:namedview
     id="base"
     pagecolor="#ffffff"
     bordercolor="#666666"
     borderopacity="1.0"
     inkscape:pageopacity="0.0"
     inkscape:pageshadow="2"
     inkscape:zoom="3.959798"
     inkscape:cx="47.930244"
     inkscape:cy="7.1266761"
     inkscape:document-units="px"
     inkscape:current-layer="layer1"
     showgrid="false"
     units="px"
     inkscape:window-width="1920"
     inkscape:window-height="1029"
     inkscape:window-x="0"
     inkscape:window-y="25"
     inkscape:window-maximized="1" />
  <metadata
     id="metadata5">
    <rdf:RDF>
      <cc:Work
         rdf:about="">
        <dc:format>image/svg+xml</dc:format>
        <dc:type
           rdf:resource="http://purl.org/dc/dcmitype/StillImage" />
        <dc:title />
      </cc:Work>
    </rdf:RDF>
  </metadata>
  <g
     inkscape:label="レイヤー 1"
     inkscape:groupmode="layer"
     id="layer1"
     transform="translate(0,-284.3)">
    <rect
       style="fill:#ffffff;stroke-width:0.26458332"
       id="rect27"
       width="12.7"
       height="12.7"
       x="0"
       y="284.29999" />
    <g
       aria-label="DrasphiD"
       transform="matrix(0.88351025,0,0,1.1318488,-2.3623512,-9.874628)"
       style="font-style:normal;font-variant:normal;font-weight:normal;font-stretch:normal;font-size:9.35048294px;line-height:1.25;font-family:Ubuntu;-inkscape-font-specification:Ubuntu;letter-spacing:0px;word-spacing:0px;fill:#000000;fill-opacity:1;stroke:none;stroke-width:0.23376207"
       id="text3715">
      <path
         d="m 6.2662291,251.91548 q 0,0.90699 -0.1963602,1.54283 -0.1870096,0.62648 -0.5516785,1.0192 -0.3553183,0.39272 -0.8695949,0.57038 -0.5049261,0.17766 -1.1314084,0.17766 -0.6358329,0 -1.3464696,-0.16831 v -6.28352 q 0.3553184,-0.0748 0.6919358,-0.12156 0.3366174,-0.0468 0.6451833,-0.0468 0.6358328,0 1.1407589,0.17766 0.5142766,0.17766 0.8695949,0.57038 0.3646689,0.39272 0.5516785,1.02855 0.1963602,0.62648 0.1963602,1.53348 z m -0.8976464,0 q 0,-0.69194 -0.1028553,-1.17816 -0.1028553,-0.48623 -0.3179164,-0.79479 -0.2150611,-0.30857 -0.5703795,-0.44883 -0.3459679,-0.14025 -0.832193,-0.14025 -0.1309067,0 -0.2618135,0.009 -0.1309068,0.009 -0.271164,0.0281 v 5.04926 q 0.1402572,0.0187 0.271164,0.0281 0.1309068,0.009 0.252463,0.009 0.4955756,0 0.8415435,-0.14026 0.3459679,-0.14025 0.561029,-0.43947 0.2244116,-0.30857 0.3272669,-0.79479 0.1028553,-0.48623 0.1028553,-1.18751 z"
         style="font-style:normal;font-variant:normal;font-weight:normal;font-stretch:normal;font-family:'Ubuntu Condensed';-inkscape-font-specification:'Ubuntu Condensed, ';letter-spacing:3.10202289px;stroke-width:0.23376207"
         id="path3717"
         inkscape:connector-curvature="0" />
      <path
         d="m 12.736033,250.98043 q -0.299215,-0.13091 -0.673234,-0.13091 -0.345968,0 -0.645184,0.12156 v 4.18902 h -0.804141 v -4.69395 q 0.271164,-0.1309 0.617132,-0.21506 0.355318,-0.0935 0.77609,-0.0935 0.224411,0 0.448823,0.0281 0.224411,0.0281 0.420772,0.10285 z"
         style="font-style:normal;font-variant:normal;font-weight:normal;font-stretch:normal;font-family:'Ubuntu Condensed';-inkscape-font-specification:'Ubuntu Condensed, ';letter-spacing:3.10202289px;stroke-width:0.23376207"
         id="path3719"
         inkscape:connector-curvature="0" />
      <path
         d="m 16.712326,250.35395 q 0.243113,-0.10286 0.514277,-0.15896 0.271164,-0.0654 0.58908,-0.0654 0.654534,0 1.065955,0.41142 0.411422,0.40207 0.411422,1.26231 v 3.25397 q -0.336618,0.0935 -0.691936,0.14961 -0.345968,0.0561 -0.682585,0.0561 -0.336618,0 -0.635833,-0.0841 -0.289865,-0.0842 -0.514277,-0.27117 -0.215061,-0.18701 -0.345968,-0.46752 -0.130906,-0.28987 -0.130906,-0.70129 0,-0.38337 0.112205,-0.66388 0.121557,-0.28987 0.327267,-0.47688 0.205711,-0.19636 0.486225,-0.28986 0.280515,-0.10286 0.607782,-0.10286 0.308566,0 0.682585,0.0748 v -0.44883 q 0,-0.54232 -0.215061,-0.75739 -0.205711,-0.21506 -0.598431,-0.21506 -0.215061,0 -0.411421,0.0468 -0.18701,0.0374 -0.402071,0.1309 z m 0.38337,3.37552 q 0,0.43012 0.224412,0.63583 0.224411,0.20571 0.635833,0.20571 0.252463,0 0.551678,-0.0654 v -1.56153 q -0.280514,-0.0748 -0.551678,-0.0748 -0.17766,0 -0.336618,0.0468 -0.158958,0.0374 -0.280514,0.14026 -0.112206,0.0935 -0.177659,0.26181 -0.06545,0.15896 -0.06545,0.41142 z"
         style="font-style:normal;font-variant:normal;font-weight:normal;font-stretch:normal;font-family:'Ubuntu Condensed';-inkscape-font-specification:'Ubuntu Condensed, ';letter-spacing:3.10202289px;stroke-width:0.23376207"
         id="path3721"
         inkscape:connector-curvature="0" />
      <path
         d="m 24.476442,254.58972 q 0.355318,0 0.532977,-0.19636 0.18701,-0.20572 0.18701,-0.53298 0,-0.20571 -0.0748,-0.34597 -0.0748,-0.14961 -0.19636,-0.26181 -0.121556,-0.11221 -0.280515,-0.19636 -0.158958,-0.0935 -0.317916,-0.19636 -0.158958,-0.0935 -0.308566,-0.21506 -0.149608,-0.13091 -0.271164,-0.28987 -0.112206,-0.16831 -0.18701,-0.37402 -0.06545,-0.21506 -0.06545,-0.49557 0,-0.60779 0.374019,-0.98181 0.38337,-0.37401 1.028553,-0.37401 0.271164,0 0.514277,0.0748 0.243113,0.0654 0.402071,0.14961 l -0.177659,0.64518 q -0.168309,-0.0935 -0.336618,-0.14026 -0.168308,-0.0468 -0.364669,-0.0468 -0.299215,0 -0.476874,0.17766 -0.177659,0.16831 -0.177659,0.49558 0,0.18701 0.06545,0.32726 0.06545,0.13091 0.168309,0.24311 0.112205,0.10286 0.243112,0.19637 0.140257,0.0935 0.289865,0.17765 0.177659,0.10286 0.345968,0.22442 0.177659,0.12155 0.308566,0.28986 0.140257,0.15896 0.224412,0.38337 0.08415,0.21506 0.08415,0.52363 0,0.64518 -0.38337,1.0379 -0.374019,0.39272 -1.103357,0.39272 -0.374019,0 -0.673235,-0.10285 -0.299215,-0.10286 -0.448823,-0.18701 l 0.168309,-0.66389 q 0.140257,0.0748 0.374019,0.16831 0.243113,0.0935 0.532978,0.0935 z"
         style="font-style:normal;font-variant:normal;font-weight:normal;font-stretch:normal;font-family:'Ubuntu Condensed';-inkscape-font-specification:'Ubuntu Condensed, ';letter-spacing:3.10202289px;stroke-width:0.23376207"
         id="path3723"
         inkscape:connector-curvature="0" />
      <path
         d="m 30.886636,254.42141 q 0.271164,0.1496 0.57973,0.1496 0.233762,0 0.411422,-0.0935 0.177659,-0.0935 0.299215,-0.30857 0.130907,-0.21506 0.19636,-0.57038 0.06545,-0.35531 0.06545,-0.87894 0,-1.00985 -0.261814,-1.43998 -0.252463,-0.43947 -0.813492,-0.43947 -0.102855,0 -0.224412,0.0187 -0.121556,0.009 -0.252463,0.0468 z m 0,2.46852 H 30.082495 V 250.382 q 0.261813,-0.11221 0.58908,-0.17766 0.336618,-0.0748 0.682586,-0.0748 0.514276,0 0.878945,0.17765 0.374019,0.17766 0.598431,0.51428 0.233762,0.32727 0.336617,0.81349 0.112206,0.47688 0.112206,1.09401 0,1.24361 -0.402071,1.89815 -0.39272,0.65453 -1.290366,0.65453 -0.215061,0 -0.38337,-0.0468 -0.168309,-0.0374 -0.317917,-0.11221 z"
         style="font-style:normal;font-variant:normal;font-weight:normal;font-stretch:normal;font-family:'Ubuntu Condensed';-inkscape-font-specification:'Ubuntu Condensed, ';letter-spacing:3.10202289px;stroke-width:0.23376207"
         id="path3725"
         inkscape:connector-curvature="0" />
      <path
         d="m 37.558642,255.1601 v -7.11572 l 0.804142,-0.14026 v 2.37502 q 0.177659,-0.0561 0.38337,-0.0935 0.215061,-0.0374 0.430122,-0.0374 0.308566,0 0.57973,0.10285 0.271164,0.0935 0.467524,0.32727 0.205711,0.23376 0.317916,0.63583 0.121557,0.39272 0.121557,0.9818 v 2.96411 h -0.804142 v -2.89865 q 0,-0.72934 -0.18701,-1.06596 -0.187009,-0.33662 -0.701286,-0.33662 -0.271164,0 -0.607781,0.0935 v 4.20772 z"
         style="font-style:normal;font-variant:normal;font-weight:normal;font-stretch:normal;font-family:'Ubuntu Condensed';-inkscape-font-specification:'Ubuntu Condensed, ';letter-spacing:3.10202289px;stroke-width:0.23376207"
         id="path3727"
         inkscape:connector-curvature="0" />
      <path
         d="m 45.975687,255.1601 h -0.804141 v -4.90901 h 0.804141 z m -0.40207,-5.7786 c -0.143375,0 -0.268048,-0.0467 -0.37402,-0.14026 -0.09974,-0.0997 -0.149607,-0.23065 -0.149607,-0.39272 0,-0.16207 0.04987,-0.28986 0.149607,-0.38337 0.105972,-0.0997 0.230645,-0.14961 0.37402,-0.14961 0.143374,0 0.26493,0.0499 0.364668,0.14961 0.105973,0.0935 0.360876,0.34562 0.158959,0.38337 -1.276818,0.23874 -0.05299,0.29298 -0.158959,0.39272 -0.09974,0.0935 -0.221294,0.14026 -0.364668,0.14026 z"
         style="font-style:normal;font-variant:normal;font-weight:normal;font-stretch:normal;font-family:'Ubuntu Condensed';-inkscape-font-specification:'Ubuntu Condensed, ';letter-spacing:3.10202289px;stroke-width:0.23376207"
         id="path3729"
         inkscape:connector-curvature="0"
         sodipodi:nodetypes="cccccscscscscs" />
      <path
         d="m 54.680402,251.91548 q 0,0.90699 -0.19636,1.54283 -0.18701,0.62648 -0.551678,1.0192 -0.355319,0.39272 -0.869595,0.57038 -0.504926,0.17766 -1.131409,0.17766 -0.635833,0 -1.346469,-0.16831 v -6.28352 q 0.355318,-0.0748 0.691935,-0.12156 0.336618,-0.0468 0.645184,-0.0468 0.635833,0 1.140759,0.17766 0.514276,0.17766 0.869595,0.57038 0.364668,0.39272 0.551678,1.02855 0.19636,0.62648 0.19636,1.53348 z m -0.897646,0 q 0,-0.69194 -0.102855,-1.17816 -0.102856,-0.48623 -0.317917,-0.79479 -0.215061,-0.30857 -0.570379,-0.44883 -0.345968,-0.14025 -0.832193,-0.14025 -0.130907,0 -0.261814,0.009 -0.130907,0.009 -0.271164,0.0281 v 5.04926 q 0.140257,0.0187 0.271164,0.0281 0.130907,0.009 0.252463,0.009 0.495576,0 0.841544,-0.14026 0.345968,-0.14025 0.561029,-0.43947 0.224411,-0.30857 0.327267,-0.79479 0.102855,-0.48623 0.102855,-1.18751 z"
         style="font-style:normal;font-variant:normal;font-weight:normal;font-stretch:normal;font-family:'Ubuntu Condensed';-inkscape-font-specification:'Ubuntu Condensed, ';letter-spacing:3.10202289px;stroke-width:0.23376207"
         id="path3731"
         inkscape:connector-curvature="0" />
    </g>
    <path
       inkscape:connector-curvature="0"
       id="path3717-0"
       style="font-style:normal;font-variant:normal;font-weight:normal;font-stretch:normal;font-size:medium;line-height:1.25;font-family:'Ubuntu Condensed';-inkscape-font-specification:'Ubuntu Condensed, ';letter-spacing:3.10202289px;word-spacing:0px;fill:#000000;fill-opacity:1;stroke:none;stroke-width:0.23376207"
       d="m 7.5107614,289.58659 q 0,1.02657 -0.1734863,1.74625 -0.1652249,0.70908 -0.4874136,1.15358 -0.3139273,0.4445 -0.768296,0.64558 -0.4461074,0.20109 -0.9996109,0.20109 -0.5617649,0 -1.1896197,-0.19051 v -7.11199 q 0.3139275,-0.0847 0.6113324,-0.13759 0.2974049,-0.053 0.5700261,-0.053 0.5617647,0 1.0078721,0.20109 0.4543687,0.20108 0.768296,0.64558 0.3221887,0.4445 0.4874136,1.16416 0.1734863,0.70908 0.1734863,1.73567 z m -0.7930798,0 q 0,-0.78317 -0.090874,-1.3335 -0.090874,-0.55034 -0.2808824,-0.89958 -0.1900087,-0.34926 -0.5039361,-0.50801 -0.3056662,-0.15874 -0.7352511,-0.15874 -0.1156574,0 -0.2313149,0.0102 -0.1156575,0.0102 -0.2395762,0.0318 v 5.715 q 0.1239187,0.0212 0.2395762,0.0318 0.1156575,0.0102 0.2230537,0.0102 0.4378461,0 0.7435123,-0.15875 0.3056661,-0.15875 0.4956748,-0.49742 0.19827,-0.34925 0.2891437,-0.89958 0.090874,-0.55034 0.090874,-1.34408 z" />
    <path
       d="m 8.9534596,291.62413 q 0,1.08086 -0.191158,1.83865 -0.1820551,0.74656 -0.5370614,1.21461 -0.345905,0.46805 -0.8465565,0.67977 -0.4915486,0.21174 -1.1014347,0.21174 -0.6189879,0 -1.3107957,-0.20056 v -7.48848 q 0.3459042,-0.0892 0.6736038,-0.14485 0.3276995,-0.056 0.628091,-0.056 0.618987,0 1.1105356,0.21172 0.5006515,0.21172 0.8465565,0.67975 0.3550063,0.46802 0.5370614,1.22579 0.1911579,0.74659 0.1911579,1.82756 z m -0.873864,0 q 0,-0.82468 -0.1001275,-1.40414 -0.1001335,-0.57942 -0.3094941,-0.94718 -0.2093626,-0.36775 -0.5552665,-0.53491 -0.336803,-0.16714 -0.8101453,-0.16714 -0.1274393,0 -0.2548779,0.0102 -0.1274383,0.0102 -0.2639795,0.0333 v 6.01749 q 0.1365412,0.0225 0.2639795,0.0333 0.1274386,0.0102 0.2457749,0.0102 0.4824453,0 0.8192483,-0.16718 0.3368009,-0.16716 0.5461647,-0.52369 0.2184657,-0.36778 0.3185959,-0.94725 0.1001275,-0.57953 0.1001275,-1.41527 z"
       style="font-style:normal;font-variant:normal;font-weight:normal;font-stretch:normal;font-size:medium;line-height:1.25;font-family:'Ubuntu Condensed';-inkscape-font-specification:'Ubuntu Condensed, ';letter-spacing:3.10202289px;word-spacing:0px;fill:#ffffff;fill-opacity:1;stroke:none;stroke-width:0.25178951"
       id="path3782"
       inkscape:connector-curvature="0" />
    <path
       inkscape:connector-curvature="0"
       id="path3731-8"
       style="font-style:normal;font-variant:normal;font-weight:normal;font-stretch:normal;font-size:medium;line-height:1.25;font-family:'Ubuntu Condensed';-inkscape-font-specification:'Ubuntu Condensed, ';letter-spacing:3.10202289px;word-spacing:0px;fill:#000000;fill-opacity:1;stroke:none;stroke-width:0.23376207"
       d="m 8.7171713,291.76941 q 0,1.02657 -0.173486,1.74625 -0.165225,0.70908 -0.487413,1.15358 -0.3139282,0.4445 -0.7682962,0.64558 -0.4461069,0.20109 -0.999612,0.20109 -0.561765,0 -1.1896191,-0.19051 v -7.11199 q 0.313927,-0.0847 0.6113322,-0.13759 0.297405,-0.053 0.5700269,-0.053 0.5617651,0 1.007872,0.20109 0.454368,0.20108 0.7682961,0.64558 0.322188,0.4445 0.487413,1.16416 0.173486,0.70908 0.173486,1.73567 z m -0.793079,0 q 0,-0.78317 -0.09087,-1.3335 -0.09087,-0.55034 -0.2808832,-0.89958 -0.1900079,-0.34926 -0.503935,-0.50801 -0.305667,-0.15874 -0.735251,-0.15874 -0.115658,0 -0.2313159,0.0102 -0.115657,0.0102 -0.2395761,0.0318 v 5.715 q 0.123919,0.0212 0.239576,0.0318 0.115658,0.0102 0.223054,0.0102 0.4378461,0 0.743513,-0.15875 0.305666,-0.15875 0.4956751,-0.49742 0.1982692,-0.34925 0.2891431,-0.89958 0.09087,-0.55034 0.09087,-1.34408 z" />
  </g>
</svg>
