<?xml version="1.0" encoding="UTF-8" standalone="no"?>
<!-- Created with Inkscape (http://www.inkscape.org/) -->

<svg
   xmlns:dc="http://purl.org/dc/elements/1.1/"
   xmlns:cc="http://creativecommons.org/ns#"
   xmlns:rdf="http://www.w3.org/1999/02/22-rdf-syntax-ns#"
   xmlns:svg="http://www.w3.org/2000/svg"
   xmlns="http://www.w3.org/2000/svg"
   xmlns:sodipodi="http://sodipodi.sourceforge.net/DTD/sodipodi-0.dtd"
   xmlns:inkscape="http://www.inkscape.org/namespaces/inkscape"
   width="175.34303"
   height="41.090889"
   viewBox="0 0 46.392844 10.871964"
   version="1.1"
   id="svg8"
   inkscape:version="0.92.3 (2405546, 2018-03-11)"
   sodipodi:docname="title.svg"
   inkscape:export-filename="/home/maton/work/drasphid/docs/resources/favicon.png"
   inkscape:export-xdpi="192"
   inkscape:export-ydpi="192">
  <defs
     id="defs2" />
  <sodipodi:namedview
     id="base"
     pagecolor="#ffffff"
     bordercolor="#666666"
     borderopacity="1.0"
     inkscape:pageopacity="0.0"
     inkscape:pageshadow="2"
     inkscape:zoom="2.8284271"
     inkscape:cx="234.70478"
     inkscape:cy="-55.826718"
     inkscape:document-units="px"
     inkscape:current-layer="text3715"
     showgrid="false"
     units="px"
     inkscape:window-width="1920"
     inkscape:window-height="1029"
     inkscape:window-x="0"
     inkscape:window-y="25"
     inkscape:window-maximized="1"
     fit-margin-top="-0.3"
     fit-margin-left="0"
     fit-margin-right="0"
     fit-margin-bottom="0"
     inkscape:pagecheckerboard="true"
     inkscape:snap-global="false">
    <inkscape:grid
       type="xygrid"
       id="grid4557"
       originx="-1.1043752e-09"
       originy="-2.0486806e-06" />
  </sodipodi:namedview>
  <metadata
     id="metadata5">
    <rdf:RDF>
      <cc:Work
         rdf:about="">
        <dc:format>image/svg+xml</dc:format>
        <dc:type
           rdf:resource="http://purl.org/dc/dcmitype/StillImage" />
        <dc:title></dc:title>
      </cc:Work>
    </rdf:RDF>
  </metadata>
  <g
     inkscape:label="レイヤー 1"
     inkscape:groupmode="layer"
     id="layer1"
     transform="translate(0.44450004,-270.01397)">
    <g
       aria-label="DrasphiD"
       transform="matrix(0.88351025,0,0,1.1318488,-2.3623512,-9.874628)"
       style="font-style:normal;font-variant:normal;font-weight:normal;font-stretch:normal;font-size:9.35048294px;line-height:1.25;font-family:Ubuntu;-inkscape-font-specification:Ubuntu;letter-spacing:0px;word-spacing:0px;fill:#ffffff;fill-opacity:1;stroke:none;stroke-width:0.23376207"
       id="text3715">
      <path
         d="m 6.2662291,251.91548 q 0,0.90699 -0.1963602,1.54283 -0.1870096,0.62648 -0.5516785,1.0192 -0.3553183,0.39272 -0.8695949,0.57038 -0.5049261,0.17766 -1.1314084,0.17766 -0.6358329,0 -1.3464696,-0.16831 v -6.28352 q 0.3553184,-0.0748 0.6919358,-0.12156 0.3366174,-0.0468 0.6451833,-0.0468 0.6358328,0 1.1407589,0.17766 0.5142766,0.17766 0.8695949,0.57038 0.3646689,0.39272 0.5516785,1.02855 0.1963602,0.62648 0.1963602,1.53348 z m -0.8976464,0 q 0,-0.69194 -0.1028553,-1.17816 -0.1028553,-0.48623 -0.3179164,-0.79479 -0.2150611,-0.30857 -0.5703795,-0.44883 -0.3459679,-0.14025 -0.832193,-0.14025 -0.1309067,0 -0.2618135,0.009 -0.1309068,0.009 -0.271164,0.0281 v 5.04926 q 0.1402572,0.0187 0.271164,0.0281 0.1309068,0.009 0.252463,0.009 0.4955756,0 0.8415435,-0.14026 0.3459679,-0.14025 0.561029,-0.43947 0.2244116,-0.30857 0.3272669,-0.79479 0.1028553,-0.48623 0.1028553,-1.18751 z"
         style="font-style:normal;font-variant:normal;font-weight:normal;font-stretch:normal;font-family:'Ubuntu Condensed';-inkscape-font-specification:'Ubuntu Condensed, ';letter-spacing:3.10202289px;fill:#ffffff;fill-opacity:1;stroke-width:0.23376207"
         id="path3717"
         inkscape:connector-curvature="0" />
      <path
         d="m 12.736033,250.98043 q -0.299215,-0.13091 -0.673234,-0.13091 -0.345968,0 -0.645184,0.12156 v 4.18902 h -0.804141 v -4.69395 q 0.271164,-0.1309 0.617132,-0.21506 0.355318,-0.0935 0.77609,-0.0935 0.224411,0 0.448823,0.0281 0.224411,0.0281 0.420772,0.10285 z"
         style="font-style:normal;font-variant:normal;font-weight:normal;font-stretch:normal;font-family:'Ubuntu Condensed';-inkscape-font-specification:'Ubuntu Condensed, ';letter-spacing:3.10202289px;fill:#ffffff;fill-opacity:1;stroke-width:0.23376207"
         id="path3719"
         inkscape:connector-curvature="0" />
      <path
         d="m 16.712326,250.35395 q 0.243113,-0.10286 0.514277,-0.15896 0.271164,-0.0654 0.58908,-0.0654 0.654534,0 1.065955,0.41142 0.411422,0.40207 0.411422,1.26231 v 3.25397 q -0.336618,0.0935 -0.691936,0.14961 -0.345968,0.0561 -0.682585,0.0561 -0.336618,0 -0.635833,-0.0841 -0.289865,-0.0842 -0.514277,-0.27117 -0.215061,-0.18701 -0.345968,-0.46752 -0.130906,-0.28987 -0.130906,-0.70129 0,-0.38337 0.112205,-0.66388 0.121557,-0.28987 0.327267,-0.47688 0.205711,-0.19636 0.486225,-0.28986 0.280515,-0.10286 0.607782,-0.10286 0.308566,0 0.682585,0.0748 v -0.44883 q 0,-0.54232 -0.215061,-0.75739 -0.205711,-0.21506 -0.598431,-0.21506 -0.215061,0 -0.411421,0.0468 -0.18701,0.0374 -0.402071,0.1309 z m 0.38337,3.37552 q 0,0.43012 0.224412,0.63583 0.224411,0.20571 0.635833,0.20571 0.252463,0 0.551678,-0.0654 v -1.56153 q -0.280514,-0.0748 -0.551678,-0.0748 -0.17766,0 -0.336618,0.0468 -0.158958,0.0374 -0.280514,0.14026 -0.112206,0.0935 -0.177659,0.26181 -0.06545,0.15896 -0.06545,0.41142 z"
         style="font-style:normal;font-variant:normal;font-weight:normal;font-stretch:normal;font-family:'Ubuntu Condensed';-inkscape-font-specification:'Ubuntu Condensed, ';letter-spacing:3.10202289px;fill:#ffffff;fill-opacity:1;stroke-width:0.23376207"
         id="path3721"
         inkscape:connector-curvature="0" />
      <path
         d="m 24.476442,254.58972 q 0.355318,0 0.532977,-0.19636 0.18701,-0.20572 0.18701,-0.53298 0,-0.20571 -0.0748,-0.34597 -0.0748,-0.14961 -0.19636,-0.26181 -0.121556,-0.11221 -0.280515,-0.19636 -0.158958,-0.0935 -0.317916,-0.19636 -0.158958,-0.0935 -0.308566,-0.21506 -0.149608,-0.13091 -0.271164,-0.28987 -0.112206,-0.16831 -0.18701,-0.37402 -0.06545,-0.21506 -0.06545,-0.49557 0,-0.60779 0.374019,-0.98181 0.38337,-0.37401 1.028553,-0.37401 0.271164,0 0.514277,0.0748 0.243113,0.0654 0.402071,0.14961 l -0.177659,0.64518 q -0.168309,-0.0935 -0.336618,-0.14026 -0.168308,-0.0468 -0.364669,-0.0468 -0.299215,0 -0.476874,0.17766 -0.177659,0.16831 -0.177659,0.49558 0,0.18701 0.06545,0.32726 0.06545,0.13091 0.168309,0.24311 0.112205,0.10286 0.243112,0.19637 0.140257,0.0935 0.289865,0.17765 0.177659,0.10286 0.345968,0.22442 0.177659,0.12155 0.308566,0.28986 0.140257,0.15896 0.224412,0.38337 0.08415,0.21506 0.08415,0.52363 0,0.64518 -0.38337,1.0379 -0.374019,0.39272 -1.103357,0.39272 -0.374019,0 -0.673235,-0.10285 -0.299215,-0.10286 -0.448823,-0.18701 l 0.168309,-0.66389 q 0.140257,0.0748 0.374019,0.16831 0.243113,0.0935 0.532978,0.0935 z"
         style="font-style:normal;font-variant:normal;font-weight:normal;font-stretch:normal;font-family:'Ubuntu Condensed';-inkscape-font-specification:'Ubuntu Condensed, ';letter-spacing:3.10202289px;fill:#ffffff;fill-opacity:1;stroke-width:0.23376207"
         id="path3723"
         inkscape:connector-curvature="0" />
      <path
         d="m 30.886636,254.42141 q 0.271164,0.1496 0.57973,0.1496 0.233762,0 0.411422,-0.0935 0.177659,-0.0935 0.299215,-0.30857 0.130907,-0.21506 0.19636,-0.57038 0.06545,-0.35531 0.06545,-0.87894 0,-1.00985 -0.261814,-1.43998 -0.252463,-0.43947 -0.813492,-0.43947 -0.102855,0 -0.224412,0.0187 -0.121556,0.009 -0.252463,0.0468 z m 0,2.46852 H 30.082495 V 250.382 q 0.261813,-0.11221 0.58908,-0.17766 0.336618,-0.0748 0.682586,-0.0748 0.514276,0 0.878945,0.17765 0.374019,0.17766 0.598431,0.51428 0.233762,0.32727 0.336617,0.81349 0.112206,0.47688 0.112206,1.09401 0,1.24361 -0.402071,1.89815 -0.39272,0.65453 -1.290366,0.65453 -0.215061,0 -0.38337,-0.0468 -0.168309,-0.0374 -0.317917,-0.11221 z"
         style="font-style:normal;font-variant:normal;font-weight:normal;font-stretch:normal;font-family:'Ubuntu Condensed';-inkscape-font-specification:'Ubuntu Condensed, ';letter-spacing:3.10202289px;fill:#ffffff;fill-opacity:1;stroke-width:0.23376207"
         id="path3725"
         inkscape:connector-curvature="0" />
      <path
         d="m 37.558642,255.1601 v -7.11572 l 0.804142,-0.14026 v 2.37502 q 0.177659,-0.0561 0.38337,-0.0935 0.215061,-0.0374 0.430122,-0.0374 0.308566,0 0.57973,0.10285 0.271164,0.0935 0.467524,0.32727 0.205711,0.23376 0.317916,0.63583 0.121557,0.39272 0.121557,0.9818 v 2.96411 h -0.804142 v -2.89865 q 0,-0.72934 -0.18701,-1.06596 -0.187009,-0.33662 -0.701286,-0.33662 -0.271164,0 -0.607781,0.0935 v 4.20772 z"
         style="font-style:normal;font-variant:normal;font-weight:normal;font-stretch:normal;font-family:'Ubuntu Condensed';-inkscape-font-specification:'Ubuntu Condensed, ';letter-spacing:3.10202289px;fill:#ffffff;fill-opacity:1;stroke-width:0.23376207"
         id="path3727"
         inkscape:connector-curvature="0" />
      <path
         d="m 45.975687,255.1601 h -0.804141 v -4.90901 c 0.259999,0.0503 0.526524,0.0598 0.804141,0 z"
         style="font-style:normal;font-variant:normal;font-weight:normal;font-stretch:normal;font-family:'Ubuntu Condensed';-inkscape-font-specification:'Ubuntu Condensed, ';letter-spacing:3.10202289px;fill:#ffffff;fill-opacity:1;stroke-width:0.23376207"
         id="path3729"
         inkscape:connector-curvature="0"
         sodipodi:nodetypes="ccccc" />
      <path
         d="m 54.680402,251.91548 q 0,0.90699 -0.19636,1.54283 -0.18701,0.62648 -0.551678,1.0192 -0.355319,0.39272 -0.869595,0.57038 -0.504926,0.17766 -1.131409,0.17766 -0.635833,0 -1.346469,-0.16831 v -6.28352 q 0.355318,-0.0748 0.691935,-0.12156 0.336618,-0.0468 0.645184,-0.0468 0.635833,0 1.140759,0.17766 0.514276,0.17766 0.869595,0.57038 0.364668,0.39272 0.551678,1.02855 0.19636,0.62648 0.19636,1.53348 z m -0.897646,0 q 0,-0.69194 -0.102855,-1.17816 -0.102856,-0.48623 -0.317917,-0.79479 -0.215061,-0.30857 -0.570379,-0.44883 -0.345968,-0.14025 -0.832193,-0.14025 -0.130907,0 -0.261814,0.009 -0.130907,0.009 -0.271164,0.0281 v 5.04926 q 0.140257,0.0187 0.271164,0.0281 0.130907,0.009 0.252463,0.009 0.495576,0 0.841544,-0.14026 0.345968,-0.14025 0.561029,-0.43947 0.224411,-0.30857 0.327267,-0.79479 0.102855,-0.48623 0.102855,-1.18751 z"
         style="font-style:normal;font-variant:normal;font-weight:normal;font-stretch:normal;font-family:'Ubuntu Condensed';-inkscape-font-specification:'Ubuntu Condensed, ';letter-spacing:3.10202289px;fill:#ffffff;fill-opacity:1;stroke-width:0.23376207"
         id="path3731"
         inkscape:connector-curvature="0" />
      <path
         style="fill:#ffffff;fill-opacity:1;stroke:none;stroke-width:0.28167135px;stroke-linecap:butt;stroke-linejoin:miter;stroke-opacity:1"
         d="m 47.205449,248.47451 c -0.813985,0.14789 -1.432201,0.48903 -1.614414,1.2602 -1.076277,-0.84014 -0.01208,-0.81642 0.538137,-1.2602 -0.975224,-0.0197 -1.076274,0.84014 -2.14088,0.001 1.064606,-0.84138 1.353533,-7e-4 2.14088,-0.001 -0.636491,-0.46962 -1.614414,-0.41999 -0.538133,-1.2602 0.179105,0.70307 0.721269,1.11995 1.614414,1.2602"
         id="path4559"
         inkscape:connector-curvature="0"
         sodipodi:nodetypes="ccccccc" />
    </g>
  </g>
</svg>
