<?xml version="1.0" encoding="UTF-8" standalone="no"?>
<!-- Created with Inkscape (http://www.inkscape.org/) -->

<svg
   xmlns:dc="http://purl.org/dc/elements/1.1/"
   xmlns:cc="http://creativecommons.org/ns#"
   xmlns:rdf="http://www.w3.org/1999/02/22-rdf-syntax-ns#"
   xmlns:svg="http://www.w3.org/2000/svg"
   xmlns="http://www.w3.org/2000/svg"
   xmlns:sodipodi="http://sodipodi.sourceforge.net/DTD/sodipodi-0.dtd"
   xmlns:inkscape="http://www.inkscape.org/namespaces/inkscape"
   width="97.206001"
   height="24.000008"
   viewBox="0 0 25.719091 6.3500018"
   version="1.1"
   id="svg8"
   inkscape:version="0.92.3 (2405546, 2018-03-11)"
   sodipodi:docname="title_.svg"
   inkscape:export-filename="/home/maton/work/drasphid/docs/resources/favicon.png"
   inkscape:export-xdpi="192"
   inkscape:export-ydpi="192">
  <defs
     id="defs2" />
  <sodipodi:namedview
     id="base"
     pagecolor="#ffffff"
     bordercolor="#666666"
     borderopacity="1.0"
     inkscape:pageopacity="0.0"
     inkscape:pageshadow="2"
     inkscape:zoom="7.9999999"
     inkscape:cx="50.677578"
     inkscape:cy="-4.5947346"
     inkscape:document-units="px"
     inkscape:current-layer="text3715"
     showgrid="false"
     units="px"
     inkscape:window-width="1920"
     inkscape:window-height="1029"
     inkscape:window-x="0"
     inkscape:window-y="25"
     inkscape:window-maximized="1"
     fit-margin-top="0"
     fit-margin-left="0"
     fit-margin-right="0"
     fit-margin-bottom="0"
     inkscape:pagecheckerboard="true"
     inkscape:snap-global="false">
    <inkscape:grid
       type="xygrid"
       id="grid4557"
       originx="-5.4150228"
       originy="-1.3563985" />
  </sodipodi:namedview>
  <metadata
     id="metadata5">
    <rdf:RDF>
      <cc:Work
         rdf:about="">
        <dc:format>image/svg+xml</dc:format>
        <dc:type
           rdf:resource="http://purl.org/dc/dcmitype/StillImage" />
        <dc:title></dc:title>
      </cc:Work>
    </rdf:RDF>
  </metadata>
  <g
     inkscape:label="レイヤー 1"
     inkscape:groupmode="layer"
     id="layer1"
     transform="translate(-4.9705212,-273.17956)">
    <g
       aria-label="DrasphiD"
       transform="matrix(0.88351025,0,0,1.1318488,-2.3623512,-9.874628)"
       style="font-style:normal;font-variant:normal;font-weight:normal;font-stretch:normal;font-size:9.35048294px;line-height:1.25;font-family:Ubuntu;-inkscape-font-specification:Ubuntu;letter-spacing:0px;word-spacing:0px;fill:#ffffff;fill-opacity:1;stroke:none;stroke-width:0.23376207"
       id="text3715">
      <path
         d="m 10.570157,252.89431 q 0,0.50282 -0.108857,0.85532 -0.103675,0.3473 -0.305839,0.56502 -0.1969796,0.21771 -0.4820819,0.3162 -0.2799191,0.0985 -0.6272257,0.0985 -0.3524907,0 -0.7464507,-0.0933 v -3.48343 q 0.1969801,-0.0415 0.3835927,-0.0674 0.1866127,-0.0259 0.3576743,-0.0259 0.3524903,0 0.6324094,0.0985 0.2851023,0.0985 0.4820819,0.31621 0.202164,0.21771 0.305839,0.57021 0.108857,0.3473 0.108857,0.85012 z m -0.497634,0 q 0,-0.38358 -0.05702,-0.65314 -0.057022,-0.26955 -0.1762456,-0.44061 -0.1192249,-0.17107 -0.3162044,-0.24882 -0.1917963,-0.0777 -0.4613481,-0.0777 -0.072571,0 -0.1451431,0.005 -0.072572,0.005 -0.1503269,0.0156 v 2.79919 q 0.077755,0.0103 0.1503269,0.0156 0.072571,0.005 0.1399594,0.005 0.2747355,0 0.4665318,-0.0777 0.191796,-0.0777 0.3110209,-0.24363 0.1244085,-0.17106 0.1814291,-0.44062 0.05702,-0.26955 0.05702,-0.65833 z"
         style="font-style:normal;font-variant:normal;font-weight:normal;font-stretch:normal;font-family:'Ubuntu Condensed';-inkscape-font-specification:'Ubuntu Condensed, ';letter-spacing:3.10202289px;fill:#ffffff;fill-opacity:1;stroke-width:0.12959214"
         id="path3717"
         inkscape:connector-curvature="0" />
      <path
         d="m 14.156862,252.37595 q -0.165878,-0.0726 -0.373225,-0.0726 -0.191797,0 -0.357675,0.0674 v 2.32229 h -0.445797 v -2.60222 q 0.150327,-0.0726 0.342124,-0.11922 0.19698,-0.0518 0.430246,-0.0518 0.124408,0 0.248817,0.0156 0.124408,0.0156 0.233265,0.057 z"
         style="font-style:normal;font-variant:normal;font-weight:normal;font-stretch:normal;font-family:'Ubuntu Condensed';-inkscape-font-specification:'Ubuntu Condensed, ';letter-spacing:3.10202289px;fill:#ffffff;fill-opacity:1;stroke-width:0.12959214"
         id="path3719"
         inkscape:connector-curvature="0" />
      <path
         d="m 16.361224,252.02864 q 0.134776,-0.057 0.285103,-0.0881 0.150327,-0.0362 0.326572,-0.0362 0.362859,0 0.590941,0.22809 0.228081,0.2229 0.228081,0.6998 v 1.80392 q -0.186612,0.0518 -0.383592,0.0829 -0.191796,0.0311 -0.37841,0.0311 -0.186613,0 -0.352489,-0.0466 -0.160695,-0.0467 -0.285104,-0.15033 -0.119224,-0.10368 -0.191796,-0.25919 -0.07257,-0.1607 -0.07257,-0.38878 0,-0.21253 0.0622,-0.36804 0.06739,-0.1607 0.18143,-0.26437 0.11404,-0.10886 0.269551,-0.16069 0.155511,-0.057 0.33694,-0.057 0.171062,0 0.378408,0.0415 v -0.24882 q 0,-0.30065 -0.119224,-0.41988 -0.114041,-0.11923 -0.331756,-0.11923 -0.119225,0 -0.228082,0.0259 -0.103673,0.0207 -0.222898,0.0726 z m 0.212531,1.87131 q 0,0.23844 0.124409,0.3525 0.124409,0.11403 0.352491,0.11403 0.139959,0 0.305837,-0.0362 v -0.86567 q -0.15551,-0.0415 -0.305837,-0.0415 -0.09849,0 -0.186613,0.0259 -0.08812,0.0207 -0.155511,0.0777 -0.0622,0.0518 -0.09849,0.14514 -0.03628,0.0881 -0.03628,0.22809 z"
         style="font-style:normal;font-variant:normal;font-weight:normal;font-stretch:normal;font-family:'Ubuntu Condensed';-inkscape-font-specification:'Ubuntu Condensed, ';letter-spacing:3.10202289px;fill:#ffffff;fill-opacity:1;stroke-width:0.12959214"
         id="path3721"
         inkscape:connector-curvature="0" />
      <path
         d="m 20.665465,254.37685 q 0.19698,0 0.295469,-0.10885 0.103675,-0.11405 0.103675,-0.29547 0,-0.11405 -0.04147,-0.19181 -0.04147,-0.0829 -0.108857,-0.14513 -0.0674,-0.0622 -0.155511,-0.10886 -0.08812,-0.0518 -0.176245,-0.10885 -0.08812,-0.0518 -0.171062,-0.11923 -0.08294,-0.0726 -0.150327,-0.1607 -0.0622,-0.0933 -0.103673,-0.20735 -0.03628,-0.11923 -0.03628,-0.27474 0,-0.33694 0.207347,-0.54428 0.212532,-0.20735 0.570206,-0.20735 0.150327,0 0.285103,0.0415 0.134776,0.0362 0.222899,0.0829 l -0.09849,0.35767 q -0.09331,-0.0518 -0.186613,-0.0777 -0.0933,-0.0259 -0.202163,-0.0259 -0.165879,0 -0.264368,0.0985 -0.09849,0.0933 -0.09849,0.27474 0,0.10368 0.03628,0.18143 0.03628,0.0726 0.0933,0.13478 0.0622,0.057 0.134775,0.10886 0.07776,0.0518 0.160694,0.0985 0.09849,0.057 0.191797,0.12441 0.09849,0.0674 0.171061,0.1607 0.07776,0.0882 0.124409,0.21253 0.04666,0.11923 0.04666,0.29028 0,0.35767 -0.212531,0.57539 -0.207347,0.21771 -0.611675,0.21771 -0.207348,0 -0.373226,-0.057 -0.165877,-0.057 -0.248817,-0.10368 l 0.09331,-0.36804 q 0.07776,0.0415 0.207347,0.0933 0.134776,0.0518 0.29547,0.0518 z"
         style="font-style:normal;font-variant:normal;font-weight:normal;font-stretch:normal;font-family:'Ubuntu Condensed';-inkscape-font-specification:'Ubuntu Condensed, ';letter-spacing:3.10202289px;fill:#ffffff;fill-opacity:1;stroke-width:0.12959214"
         id="path3723"
         inkscape:connector-curvature="0" />
      <path
         d="m 24.219124,254.28355 q 0.150328,0.0829 0.321389,0.0829 0.129592,0 0.228083,-0.0518 0.09849,-0.0518 0.165877,-0.17106 0.07257,-0.11923 0.108858,-0.31621 0.03628,-0.19697 0.03628,-0.48726 0,-0.55984 -0.145144,-0.7983 -0.139959,-0.24363 -0.45098,-0.24363 -0.05702,0 -0.124409,0.0103 -0.0674,0.005 -0.139959,0.0259 z m 0,1.36849 h -0.445797 v -3.60784 q 0.145143,-0.0622 0.326573,-0.0985 0.186613,-0.0415 0.378409,-0.0415 0.285103,0 0.487266,0.0985 0.207348,0.0985 0.331756,0.2851 0.129593,0.18144 0.186613,0.45098 0.0622,0.26437 0.0622,0.60649 0,0.68943 -0.222899,1.05229 -0.217714,0.36286 -0.715348,0.36286 -0.119225,0 -0.212532,-0.0259 -0.0933,-0.0207 -0.176245,-0.0622 z"
         style="font-style:normal;font-variant:normal;font-weight:normal;font-stretch:normal;font-family:'Ubuntu Condensed';-inkscape-font-specification:'Ubuntu Condensed, ';letter-spacing:3.10202289px;fill:#ffffff;fill-opacity:1;stroke-width:0.12959214"
         id="path3725"
         inkscape:connector-curvature="0" />
      <path
         d="m 27.917926,254.69306 v -3.94478 l 0.445796,-0.0777 v 1.31664 q 0.09849,-0.0311 0.212532,-0.0518 0.119225,-0.0207 0.238449,-0.0207 0.171062,0 0.321389,0.057 0.150326,0.0518 0.259184,0.18143 0.114042,0.1296 0.176245,0.35249 0.06739,0.21771 0.06739,0.54428 v 1.64324 h -0.445797 v -1.60695 q 0,-0.40433 -0.103674,-0.59094 -0.103673,-0.18661 -0.388776,-0.18661 -0.150327,0 -0.33694,0.0518 v 2.33265 z"
         style="font-style:normal;font-variant:normal;font-weight:normal;font-stretch:normal;font-family:'Ubuntu Condensed';-inkscape-font-specification:'Ubuntu Condensed, ';letter-spacing:3.10202289px;fill:#ffffff;fill-opacity:1;stroke-width:0.12959214"
         id="path3727"
         inkscape:connector-curvature="0" />
      <path
         d="m 32.584135,254.69306 h -0.445797 v -2.1288 c 0.144138,0.0218 0.291893,0.0259 0.445797,0 z"
         style="font-style:normal;font-variant:normal;font-weight:normal;font-stretch:normal;font-family:'Ubuntu Condensed';-inkscape-font-specification:'Ubuntu Condensed, ';letter-spacing:3.10202289px;fill:#ffffff;fill-opacity:1;stroke-width:0.11461647"
         id="path3729"
         inkscape:connector-curvature="0"
         sodipodi:nodetypes="ccccc" />
      <path
         d="m 37.409822,252.89431 q 0,0.50282 -0.108858,0.85532 -0.103673,0.3473 -0.305837,0.56502 -0.19698,0.21771 -0.482082,0.3162 -0.279919,0.0985 -0.627227,0.0985 -0.352489,0 -0.746451,-0.0933 v -3.48343 q 0.196981,-0.0415 0.383594,-0.0674 0.186612,-0.0259 0.357674,-0.0259 0.352491,0 0.63241,0.0985 0.285102,0.0985 0.482082,0.31621 0.202164,0.21771 0.305837,0.57021 0.108858,0.3473 0.108858,0.85012 z m -0.497634,0 q 0,-0.38358 -0.05702,-0.65314 -0.05702,-0.26955 -0.176245,-0.44061 -0.119225,-0.17107 -0.316205,-0.24882 -0.191796,-0.0777 -0.461348,-0.0777 -0.07257,0 -0.145144,0.005 -0.07257,0.005 -0.150326,0.0156 v 2.79919 q 0.07776,0.0103 0.150326,0.0156 0.07257,0.005 0.13996,0.005 0.274736,0 0.466532,-0.0777 0.191796,-0.0777 0.311022,-0.24363 0.124407,-0.17106 0.181428,-0.44062 0.05702,-0.26955 0.05702,-0.65833 z"
         style="font-style:normal;font-variant:normal;font-weight:normal;font-stretch:normal;font-family:'Ubuntu Condensed';-inkscape-font-specification:'Ubuntu Condensed, ';letter-spacing:3.10202289px;fill:#ffffff;fill-opacity:1;stroke-width:0.12959214"
         id="path3731"
         inkscape:connector-curvature="0" />
      <path
         style="fill:#ffffff;fill-opacity:1;stroke:none;stroke-width:0.20046617px;stroke-linecap:butt;stroke-linejoin:miter;stroke-opacity:1"
         d="m 33.518957,251.48054 c -0.579314,0.10532 -1.019301,0.34805 -1.148983,0.8969 -0.765988,-0.59794 -0.0086,-0.58106 0.382994,-0.8969 -0.694069,-0.014 -0.765986,0.59794 -1.523669,7.1e-4 0.757683,-0.59881 0.963312,-5e-4 1.523669,-7.1e-4 -0.452993,-0.33423 -1.148982,-0.29891 -0.382991,-0.89688 0.12747,0.50037 0.513329,0.79707 1.148984,0.89688"
         id="path4559"
         inkscape:connector-curvature="0"
         sodipodi:nodetypes="ccccccc" />
    </g>
  </g>
</svg>
